<svg xmlns="http://www.w3.org/2000/svg" width="125" height="34" viewBox="0 0 125 34">
    <g fill="none" fill-rule="evenodd">
        <g fill-rule="nonzero">
            <g>
                <g>
                    <g>
                        <path fill="#0035C1" d="M10.627 0H5.445c-.295 0-.533.239-.533.533 0 .232.15.437.37.508l4.818 1.55-1.208 5.972c-.058.289.129.57.418.629.086.017.175.013.26-.013l2.149-.65 5.987-1.354c1.522 2.34 4.31 1.431 4.31 1.431-1.91-.348-2.554-1.682-2.769-2.63-.078-.406-.097-.715-.117-.89v-.135c.02-.193.04-.367.098-.522.565-1.644 2.32-1.528 2.32-1.528s1.288 2.07 5.188 1.567c3.9-.503 6.534 1.76 7.724 3.384 1.19 1.625 3.218 1.412 3.51 2.36.293.947-1.58 2.553-1.58 2.553l-1.443 1.837c.195-.76.156-1.47-.117-2.128-1.17-.135-2.73-.135-3.706.561-1.15.851.547 2.186 1.736 2.94l.604-.117c.233-.045.458.107.503.34.025.127-.01.258-.093.357 0 0-.117.136-.292.348-.488.6-1.502 1.683-2.243 2.147-1.014.6-2.691-3.675-6.533-2.824-1.249 2.553.565 5.918.565 5.918 7.407 0 11.697 1.687 12.873 5.061.097.278-.05.582-.329.68-.08.027-.166.036-.25.024-6.216-.884-11.276-1.245-15.18-1.084-3.667.135-6.241-.6-7.724-1.219-1.326-.657-2.925-1.972-3.471-4.506 0 0-1.034 2.34.507 4.68-.195.097-.39.174-.605.271H.782c-.294 0-.533.239-.533.534 0 .251.176.469.422.521l4.3.918-.563 2.78c-.292 1.444.642 2.85 2.086 3.143.174.035.351.053.529.053H40.08c1.269 0 2.362-.894 2.614-2.138l5.804-28.646c.292-1.444-.641-2.851-2.085-3.144-.174-.035-.352-.053-.53-.053H14.938L10.627 0z" transform="translate(-82 -11) translate(82 11)"/>
                        <g fill="#595959">
                            <path d="M16.633 15.52h-8.55C3.51 15.52.079 12.693.079 8.026.078 3.795 3.606.778 7.793.778c4.187 0 7.716 3.036 7.716 7.248 0 2.997-1.687 4.591-3.102 5.388v.038h4.207v2.068h.02zM2.811 8.083c0 2.94 2.094 5.122 4.963 5.122 2.908 0 5.001-2.182 5.001-5.122 0-2.865-2.074-4.99-5.04-4.99-2.85 0-4.924 2.125-4.924 4.99zM24.542 14.192h-.058c-.698 1.1-1.86 1.594-3.198 1.594-1.842 0-3.625-.987-3.625-2.922 0-3.169 3.78-3.396 6.261-3.396h.62v-.266c0-1.195-.95-1.821-2.287-1.821-1.047 0-1.997.398-2.656 1.024L18.3 7.134c1.105-1.1 2.656-1.556 4.226-1.556 4.265 0 4.265 2.998 4.265 4.383v5.616h-2.249v-1.385zm-.135-3.036h-.524c-1.376 0-3.741.095-3.741 1.5 0 .89.93 1.27 1.745 1.27 1.706 0 2.52-.872 2.52-2.239v-.53zM29.505.171L32.006.171 32.006 15.539 29.505 15.539zM33.712 7.855V5.787h2.055V2.96h2.5v2.827h2.734v2.068h-2.733v4.269c0 .968.29 1.594 1.395 1.594.427 0 1.047-.076 1.357-.304v2.05c-.523.246-1.395.322-1.977.322-2.636 0-3.257-1.158-3.257-3.453V7.855h-2.074zM42.94 5.768h2.481v1.537h.039c.543-1.12 1.648-1.784 2.946-1.784.31 0 .601.057.892.133v2.353c-.407-.095-.814-.19-1.202-.19-2.345 0-2.675 1.935-2.675 2.466v5.218H42.94V5.768zM57.246 14.192h-.058c-.698 1.1-1.86 1.594-3.198 1.594-1.842 0-3.626-.987-3.626-2.922 0-3.169 3.78-3.396 6.262-3.396h.62v-.266c0-1.195-.95-1.821-2.287-1.821-1.047 0-1.997.398-2.656 1.024l-1.299-1.271c1.105-1.1 2.656-1.556 4.226-1.556 4.265 0 4.265 2.998 4.265 4.383v5.616h-2.249v-1.385zm-.155-3.036h-.523c-1.376 0-3.742.095-3.742 1.5 0 .89.931 1.27 1.745 1.27 1.706 0 2.52-.872 2.52-2.239v-.53zM62.17.171L64.652.171 64.652 9.828 68.49 5.787 71.689 5.787 67.405 10.208 71.96 15.539 68.665 15.539 64.691 10.568 64.652 10.568 64.652 15.539 62.17 15.539z" transform="translate(-82 -11) translate(82 11) translate(52.885 9.031)"/>
                        </g>
                    </g>
                </g>
            </g>
        </g>
    </g>
</svg>
