<svg width="142" height="223" viewBox="0 0 142 223" fill="none" xmlns="http://www.w3.org/2000/svg">
<rect width="142" height="223" fill="#1890FF" fill-opacity="0.1"/>
<rect x="16" y="13" width="116" height="46" fill="#1890FF"/>
<rect opacity="0.2" y="71" width="142" height="77" fill="#1890FF"/>
<rect opacity="0.2" width="142" height="6" fill="#1890FF"/>
<rect x="16" y="86" width="27" height="50" fill="#1890FF"/>
<rect x="16" y="162" width="27" height="47" fill="#1890FF"/>
<rect x="16" y="211" width="27" height="12" fill="#1890FF"/>
<rect x="74" y="162" width="27" height="47" fill="#1890FF"/>
<rect x="74" y="211" width="27" height="12" fill="#1890FF"/>
<rect x="45" y="162" width="27" height="47" fill="#1890FF"/>
<rect x="45" y="211" width="27" height="12" fill="#1890FF"/>
<rect x="103" y="162" width="27" height="47" fill="#1890FF"/>
<rect x="103" y="211" width="27" height="12" fill="#1890FF"/>
<rect x="74" y="86" width="27" height="50" fill="#1890FF"/>
<rect x="45" y="86" width="27" height="50" fill="#1890FF"/>
<rect x="103" y="86" width="27" height="50" fill="#1890FF"/>
<circle cx="135" cy="111" r="2" fill="#1890FF"/>
<circle cx="11" cy="111" r="2" fill="#1890FF"/>
</svg>
